<svg width="28" height="19" viewBox="0 0 28 19" fill="none" xmlns="http://www.w3.org/2000/svg">
<path d="M3.47767 1.5438C2.73332 0.727706 1.46833 0.669545 0.652231 1.4139C-0.163865 2.15825 -0.222026 3.42324 0.522326 4.23934L3.47767 1.5438ZM27.4777 4.23934C28.222 3.42324 28.1639 2.15825 27.3478 1.4139C26.5317 0.669545 25.2667 0.727706 24.5223 1.5438L27.4777 4.23934ZM14 16.0482L12.5223 17.396C12.9013 17.8115 13.4377 18.0482 14 18.0482C14.5623 18.0482 15.0987 17.8115 15.4777 17.396L14 16.0482ZM0.522326 4.23934L12.5223 17.396L15.4777 14.7004L3.47767 1.5438L0.522326 4.23934ZM15.4777 17.396L27.4777 4.23934L24.5223 1.5438L12.5223 14.7004L15.4777 17.396Z" fill="white"/>
</svg>
