<svg width="20" height="20" viewBox="0 0 20 20" fill="none" xmlns="http://www.w3.org/2000/svg">
<path d="M19 1.75C19 1.33579 18.6642 1 18.25 1C17.8358 1 17.5 1.33579 17.5 1.75V18.25C17.5 18.6642 17.8358 19 18.25 19C18.6642 19 19 18.6642 19 18.25V1.75ZM3.7697 1.52521C2.61175 0.694978 1 1.5226 1 2.94743V17.1704C1 18.5542 2.53019 19.3905 3.69492 18.6434L14.1646 11.927C15.2053 11.2593 15.2443 9.75225 14.2394 9.03177L3.7697 1.52521ZM2.5 2.94743C2.5 2.74388 2.73025 2.62565 2.89567 2.74425L13.3653 10.2508C13.5089 10.3537 13.5033 10.569 13.3547 10.6644L2.88499 17.3808C2.7186 17.4876 2.5 17.3681 2.5 17.1704V2.94743Z" fill="#492F6D" stroke="#492F6D" stroke-linecap="round"/>
</svg>
