<svg width="33" height="31" viewBox="0 0 33 31" fill="none" xmlns="http://www.w3.org/2000/svg">
<path d="M31.7702 0C32.4494 0 33 0.547859 33 1.22368V11.0133C33 11.6891 32.4494 12.2369 31.7702 12.2369H22.7517C22.0725 12.2369 21.5219 11.6891 21.5219 11.0133C21.5219 10.3374 22.0725 9.78958 22.7517 9.78958H29.6355C26.6471 5.52155 21.9579 3.18392 16.6209 3.26309C10.527 3.35349 4.98645 6.43129 2.33196 11.7606C2.03035 12.3661 1.29251 12.6137 0.683955 12.3136C0.0753981 12.0135 -0.17343 11.2793 0.128181 10.6738C3.24593 4.41443 9.69722 0.918177 16.5842 0.81601C22.1022 0.734153 27.0757 2.92186 30.5404 6.95586V1.22368C30.5404 0.547859 31.091 0 31.7702 0ZM21.7797 14.6843C19.5658 14.6843 17.9873 15.699 17.0348 17.3218C16.1373 18.8507 15.8357 20.8399 15.8357 22.8421C15.8357 24.8444 16.1373 26.8336 17.0348 28.3625C17.9873 29.9852 19.5658 31 21.7797 31C23.9936 31 25.5721 29.9852 26.5246 28.3625C27.4221 26.8336 27.7237 24.8444 27.7237 22.8421C27.7237 20.8399 27.4221 18.8507 26.5246 17.3218C25.5721 15.699 23.9936 14.6843 21.7797 14.6843ZM18.2953 22.8421C18.2953 21.0147 18.5829 19.5368 19.1586 18.5561C19.6793 17.6692 20.4579 17.1316 21.7797 17.1316C23.1015 17.1316 23.8801 17.6692 24.4008 18.5561C24.9765 19.5368 25.2641 21.0147 25.2641 22.8421C25.2641 24.6695 24.9765 26.1474 24.4008 27.1282C23.8801 28.0151 23.1015 28.5526 21.7797 28.5526C20.4579 28.5526 19.6793 28.0151 19.1586 27.1282C18.5829 26.1474 18.2953 24.6695 18.2953 22.8421ZM12.5034 15.908C12.5034 15.3553 12.131 14.8712 11.5948 14.7268C11.0593 14.5826 10.4932 14.813 10.2127 15.289L10.2119 15.2904L10.204 15.3034C10.1959 15.3168 10.1822 15.339 10.1631 15.3694C10.1247 15.43 10.0647 15.5227 9.98395 15.6404C9.82205 15.8765 9.57856 16.2108 9.26067 16.5902C8.61836 17.3566 7.70507 18.2674 6.58252 18.9376C6.00011 19.2853 5.81126 20.037 6.1607 20.6165C6.51015 21.196 7.26556 21.3839 7.84797 21.0362C8.69511 20.5304 9.43017 19.9314 10.0438 19.3426V29.7763C10.0438 30.4521 10.5944 31 11.2736 31C11.9528 31 12.5034 30.4521 12.5034 29.7763V15.908Z" fill="white"/>
</svg>
