<svg width="20" height="20" viewBox="0 0 20 20" fill="none" xmlns="http://www.w3.org/2000/svg">
<path d="M1 1.75C1 1.33579 1.33579 1 1.75 1C2.16421 1 2.5 1.33579 2.5 1.75V18.25C2.5 18.6642 2.16421 19 1.75 19C1.33579 19 1 18.6642 1 18.25V1.75ZM16.2303 1.52521C17.3883 0.694978 19 1.5226 19 2.94743V17.1704C19 18.5542 17.4698 19.3905 16.3051 18.6434L5.8354 11.927C4.79467 11.2593 4.75574 9.75225 5.76062 9.03177L16.2303 1.52521ZM17.5 2.94743C17.5 2.74388 17.2697 2.62565 17.1043 2.74425L6.63465 10.2508C6.4911 10.3537 6.49666 10.569 6.64533 10.6644L17.115 17.3808C17.2814 17.4876 17.5 17.3681 17.5 17.1704V2.94743Z" fill="#492F6D" stroke="#492F6D" stroke-linecap="round"/>
</svg>
