<svg width="38" height="36" viewBox="0 0 38 36" fill="none" xmlns="http://www.w3.org/2000/svg">
<path d="M0 1.42105C0 0.636227 0.634024 0 1.41613 0C2.19824 0 2.83226 0.636227 2.83226 1.42105V8.07781C6.82187 3.39315 12.549 0.852569 18.903 0.94763C26.8335 1.06627 34.2623 5.12646 37.8524 12.3954C38.1997 13.0986 37.9132 13.9512 37.2124 14.2997C36.5117 14.6482 35.662 14.3607 35.3147 13.6575C32.258 7.46863 25.878 3.8944 18.8608 3.78942C12.7151 3.69747 7.31551 6.41215 3.87425 11.3686H11.8011C12.5832 11.3686 13.2172 12.0048 13.2172 12.7897C13.2172 13.5745 12.5832 14.2107 11.8011 14.2107H1.41613C0.634024 14.2107 0 13.5745 0 12.7897V1.42105ZM14.1613 18.4737C14.1613 17.8318 13.7326 17.2696 13.1151 17.102C12.4985 16.9345 11.8466 17.2021 11.5236 17.7549L11.5227 17.7565L11.5136 17.7716C11.5043 17.7871 11.4885 17.813 11.4664 17.8482C11.4223 17.9187 11.3532 18.0262 11.2602 18.163C11.0738 18.4372 10.7934 18.8254 10.4273 19.2659C9.68769 20.156 8.63602 21.2137 7.34339 21.992C6.67274 22.3958 6.45527 23.2687 6.85766 23.9417C7.26005 24.6146 8.12992 24.8329 8.80058 24.4291C9.77607 23.8417 10.6225 23.1461 11.3291 22.4623V34.5789C11.3291 35.3638 11.9631 36 12.7452 36C13.5273 36 14.1613 35.3638 14.1613 34.5789V18.4737ZM24.8432 17.0526C22.2938 17.0526 20.4762 18.2311 19.3793 20.1155C18.3458 21.8911 17.9985 24.2011 17.9985 26.5263C17.9985 28.8515 18.3458 31.1616 19.3793 32.9371C20.4762 34.8216 22.2938 36 24.8432 36C27.3925 36 29.2101 34.8216 30.307 32.9371C31.3405 31.1616 31.6878 28.8515 31.6878 26.5263C31.6878 24.2011 31.3405 21.8911 30.307 20.1155C29.2101 18.2311 27.3925 17.0526 24.8432 17.0526ZM20.8308 26.5263C20.8308 24.4042 21.162 22.6879 21.825 21.549C22.4245 20.5189 23.3211 19.8947 24.8432 19.8947C26.3652 19.8947 27.2618 20.5189 27.8614 21.549C28.5243 22.6879 28.8555 24.4042 28.8555 26.5263C28.8555 28.6485 28.5243 30.3647 27.8614 31.5037C27.2618 32.5337 26.3652 33.1579 24.8432 33.1579C23.3211 33.1579 22.4245 32.5337 21.825 31.5037C21.162 30.3647 20.8308 28.6485 20.8308 26.5263Z" fill="white"/>
</svg>
