<svg width="17" height="17" viewBox="0 0 17 17" fill="none" xmlns="http://www.w3.org/2000/svg">
<path d="M6.84729 0C3.06564 0 0 3.06564 0 6.8473C0 10.629 3.06564 13.6946 6.84729 13.6946C8.48299 13.6946 9.98473 13.1211 11.1624 12.1641L15.7908 16.7925C16.0674 17.0692 16.5159 17.0692 16.7925 16.7925C17.0692 16.5159 17.0692 16.0674 16.7925 15.7908L12.1641 11.1624C13.1211 9.98472 13.6946 8.48299 13.6946 6.8473C13.6946 3.06564 10.6289 0 6.84729 0ZM1.41668 6.8473C1.41668 3.84806 3.84805 1.41668 6.84729 1.41668C9.84654 1.41668 12.2779 3.84806 12.2779 6.8473C12.2779 9.84655 9.84654 12.2779 6.84729 12.2779C3.84805 12.2779 1.41668 9.84655 1.41668 6.8473Z" fill="#212121"/>
</svg>
